<svg width="19" height="25" viewBox="0 0 19 25" fill="none" xmlns="http://www.w3.org/2000/svg">
<path fill-rule="evenodd" clip-rule="evenodd" d="M2.31048e-06 3.96825C2.31048e-06 2.91581 0.41704 1.90647 1.15937 1.16227C1.9017 0.418083 2.90852 0 3.95834 0L17.8125 0C18.1274 0 18.4295 0.125425 18.6522 0.348682C18.8749 0.57194 19 0.874742 19 1.19048V21.0317C19 21.3475 18.8749 21.6503 18.6522 21.8735C18.4295 22.0968 18.1274 22.2222 17.8125 22.2222H13.8542C13.5392 22.2222 13.2372 22.0968 13.0145 21.8735C12.7918 21.6503 12.6667 21.3475 12.6667 21.0317C12.6667 20.716 12.7918 20.4132 13.0145 20.19C13.2372 19.9667 13.5392 19.8413 13.8542 19.8413H16.625V16.6667H3.95834C3.64655 16.6667 3.34172 16.759 3.08206 16.9321C2.82241 17.1051 2.61949 17.3511 2.49876 17.6393C2.37802 17.9275 2.34485 18.245 2.40339 18.552C2.46193 18.859 2.60959 19.1419 2.82784 19.3651C3.0483 19.5907 3.17032 19.8949 3.16705 20.2108C3.16378 20.5266 3.0355 20.8282 2.81042 21.0492C2.58534 21.2702 2.2819 21.3925 1.96685 21.3893C1.65181 21.386 1.35096 21.2574 1.1305 21.0317C0.404879 20.2903 -0.00111754 19.2927 2.31048e-06 18.254V3.96825ZM16.625 2.38095V14.2857H3.95834C3.39467 14.2857 2.8595 14.4032 2.375 14.6159V3.96825C2.375 3.54728 2.54182 3.14354 2.83875 2.84586C3.13568 2.54819 3.53841 2.38095 3.95834 2.38095H16.625ZM4.75 19.4444V24.6032C4.75 24.6769 4.77047 24.7491 4.80912 24.8118C4.84777 24.8745 4.90306 24.9251 4.96881 24.9581C5.03456 24.9911 5.10817 25.005 5.18138 24.9984C5.2546 24.9918 5.32453 24.9649 5.38334 24.9206L7.67917 23.1952C7.74769 23.1437 7.83102 23.1159 7.91667 23.1159C8.00231 23.1159 8.08565 23.1437 8.15417 23.1952L10.45 24.9206C10.5088 24.9649 10.5787 24.9918 10.652 24.9984C10.7252 25.005 10.7988 24.9911 10.8645 24.9581C10.9303 24.9251 10.9856 24.8745 11.0242 24.8118C11.0629 24.7491 11.0833 24.6769 11.0833 24.6032V19.4444C11.0833 19.3392 11.0416 19.2383 10.9674 19.1638C10.8932 19.0894 10.7925 19.0476 10.6875 19.0476H5.14583C5.04085 19.0476 4.94017 19.0894 4.86594 19.1638C4.79171 19.2383 4.75 19.3392 4.75 19.4444Z" fill="black"/>
</svg>
