<svg width="14" height="13" viewBox="0 0 14 13" fill="none" xmlns="http://www.w3.org/2000/svg">
<path fill-rule="evenodd" clip-rule="evenodd" d="M7.00089 1.44134e-07C7.13319 -8.30035e-05 7.26288 0.03581 7.37526 0.103617C7.48765 0.171423 7.57825 0.268436 7.63682 0.383674L9.41513 3.88539L13.3932 4.44713C13.524 4.46559 13.6469 4.51923 13.748 4.60199C13.8491 4.68475 13.9244 4.79334 13.9652 4.91546C14.0061 5.03759 14.011 5.1684 13.9794 5.2931C13.9478 5.41779 13.8809 5.53141 13.7863 5.6211L10.9081 8.3472L11.5875 12.195C11.6099 12.3216 11.5954 12.4517 11.5456 12.5707C11.4958 12.6898 11.4127 12.7929 11.3058 12.8684C11.1988 12.9439 11.0722 12.9889 10.9403 12.9982C10.8084 13.0075 10.6765 12.9808 10.5594 12.921L7.00089 11.1036L3.44238 12.921C3.32539 12.9807 3.19356 13.0074 3.06177 12.9981C2.92997 12.9888 2.80348 12.944 2.69655 12.8686C2.58963 12.7931 2.50654 12.6902 2.45667 12.5713C2.4068 12.4525 2.39213 12.3224 2.41433 12.1959L3.09466 8.34629L0.214588 5.6211C0.119688 5.53144 0.052536 5.41776 0.0207423 5.29293C-0.0110513 5.1681 -0.00621573 5.03711 0.0347011 4.91482C0.075618 4.79252 0.15098 4.6838 0.252248 4.60098C0.353516 4.51815 0.47664 4.46454 0.607668 4.44621L4.58572 3.88539L6.36497 0.383674C6.42354 0.268436 6.51414 0.171423 6.62653 0.103617C6.73891 0.03581 6.8686 -8.30035e-05 7.00089 1.44134e-07V1.44134e-07ZM7.00089 2.24422L5.6922 4.81887C5.64138 4.91883 5.56633 5.0053 5.4735 5.07086C5.38067 5.13641 5.27284 5.17908 5.15928 5.1952L2.2329 5.60825L4.34949 7.6129C4.43184 7.69079 4.49345 7.78698 4.52901 7.89316C4.56457 7.99933 4.573 8.11232 4.55359 8.22237L4.05468 11.0531L6.67112 9.71668C6.77282 9.66475 6.886 9.63761 7.00089 9.63761C7.11579 9.63761 7.22897 9.66475 7.33067 9.71668L9.94805 11.0531L9.44725 8.22237C9.42784 8.11232 9.43628 7.99933 9.47183 7.89316C9.50739 7.78698 9.569 7.69079 9.65135 7.6129L11.7679 5.60917L8.84251 5.19612C8.72895 5.18 8.62112 5.13733 8.52829 5.07177C8.43546 5.00622 8.36041 4.91975 8.30959 4.81979L7.00089 2.2433V2.24422Z" fill="black"/>
</svg>
